Coordinates
version=1
nRows=30
nColumns=38
inDegrees=no

Units are S.I. units (second, meters, Newtons, ...)
If the header above contains a line with 'inDegrees', this indicates whether rotational values are in degrees (yes) or radians (no).

endheader
time	pelvis_tilt	pelvis_list	pelvis_rotation	pelvis_tx	pelvis_ty	pelvis_tz	hip_flexion_r	hip_adduction_r	hip_rotation_r	knee_angle_r	ankle_angle_r	subtalar_angle_r	mtp_angle_r	hip_flexion_l	hip_adduction_l	hip_rotation_l	knee_angle_l	ankle_angle_l	subtalar_angle_l	mtp_angle_l	lumbar_extension	lumbar_bending	lumbar_rotation	arm_flex_r	arm_add_r	arm_rot_r	elbow_flex_r	pro_sup_r	wrist_flex_r	wrist_dev_r	arm_flex_l	arm_add_l	arm_rot_l	elbow_flex_l	pro_sup_l	wrist_flex_l	wrist_dev_l
0	3.05207	1.36285	-1.42853	0.612555	-0.0690482	0.953232	-0.136423	-0.0200716	-0.115094	0.290583	-0.403908	0	0	-0.271651	-0.0325393	-0.00605274	0.0825974	-0.403018	0	0	-0.287351	0.0598986	-0.187288	0.478919	-0.243774	1.15133	0.500054	1.12884	0	0	0.098997	-0.371732	0.588205	0.718695	1.22609	0	0
0.01	3.05782	1.36242	-1.43574	0.613149	-0.068809	0.953117	-0.143879	-0.0209225	-0.114945	0.278521	-0.407315	0	0	-0.275567	-0.0320272	-0.00254407	0.0769367	-0.404337	0	0	-0.287553	0.0575388	-0.18362	0.476503	-0.242327	1.15894	0.501626	1.13143	0	0	0.0982432	-0.368748	0.580633	0.712394	1.22672	0	0
0.02	3.05576	1.36015	-1.43491	0.613637	-0.0686273	0.953293	-0.152095	-0.0194992	-0.116908	0.266249	-0.412064	0	0	-0.280778	-0.0329873	-0.000389471	0.071854	-0.405854	0	0	-0.290241	0.0578373	-0.180908	0.4753	-0.242249	1.16783	0.505302	1.13422	0	0	0.0975651	-0.366365	0.575349	0.706957	1.22672	0	0
0.03	3.04849	1.35737	-1.42835	0.614052	-0.0684734	0.953613	-0.159933	-0.0168189	-0.118067	0.255695	-0.416695	0	0	-0.286273	-0.0351002	0.00206283	0.066903	-0.407422	0	0	-0.29326	0.0597918	-0.178925	0.474331	-0.24202	1.17599	0.508249	1.13729	0	0	0.0964995	-0.363755	0.570565	0.701587	1.22554	0	0
0.04	3.03875	1.35521	-1.41856	0.614431	-0.068279	0.953957	-0.166502	-0.0136523	-0.118863	0.247119	-0.420058	0	0	-0.290131	-0.0379842	0.00337516	0.0638344	-0.408326	0	0	-0.29523	0.0624551	-0.177751	0.472832	-0.241749	1.18261	0.510781	1.14034	0	0	0.0949633	-0.361158	0.566056	0.696978	1.22215	0	0
0.05	3.0286	1.35316	-1.40777	0.614789	-0.0680853	0.954321	-0.173388	-0.01012	-0.118403	0.238168	-0.4233	0	0	-0.293586	-0.0411021	0.00478855	0.0609447	-0.408976	0	0	-0.296556	0.0654221	-0.1775	0.471293	-0.241615	1.18916	0.513157	1.14315	0	0	0.0925373	-0.35898	0.562083	0.693527	1.21816	0	0
0.06	3.02019	1.35171	-1.39857	0.615193	-0.067885	0.954625	-0.1795	-0.00689964	-0.116722	0.230175	-0.425749	0	0	-0.296205	-0.0437422	0.00638521	0.0584373	-0.409467	0	0	-0.296821	0.0679289	-0.177606	0.469184	-0.241302	1.19375	0.515208	1.14477	0	0	0.0893136	-0.357645	0.559564	0.691581	1.21432	0	0
0.07	3.01419	1.35131	-1.39141	0.615628	-0.0676331	0.954821	-0.184917	-0.00410285	-0.113775	0.221548	-0.427912	0	0	-0.297392	-0.0457719	0.00796884	0.0567568	-0.409644	0	0	-0.295363	0.06983	-0.178271	0.466379	-0.241374	1.19732	0.517676	1.14594	0	0	0.0853952	-0.35674	0.558514	0.690287	1.2089	0	0
0.08	3.01017	1.35404	-1.38548	0.616049	-0.0671326	0.954762	-0.187215	-0.00215693	-0.110996	0.213108	-0.429388	0	0	-0.295164	-0.047019	0.00904735	0.0555837	-0.409949	0	0	-0.290103	0.0694745	-0.177858	0.460879	-0.242861	1.19823	0.521093	1.14612	0	0	0.081259	-0.355868	0.558321	0.690327	1.20123	0	0
0.09	3.0087	1.35692	-1.38147	0.616404	-0.0666888	0.954646	-0.18869	-0.00084058	-0.108973	0.206065	-0.43033	0	0	-0.292297	-0.0478846	0.00950142	0.0552926	-0.410363	0	0	-0.28482	0.0688024	-0.17854	0.455348	-0.244547	1.19798	0.524943	1.14524	0	0	0.0762715	-0.355394	0.557304	0.692222	1.19191	0	0
0.1	3.00967	1.36002	-1.37946	0.616763	-0.0662562	0.954464	-0.189017	-6.03756e-05	-0.107588	0.200804	-0.430848	0	0	-0.289231	-0.048349	0.0105045	0.0549102	-0.411059	0	0	-0.279446	0.0676885	-0.179919	0.449455	-0.246404	1.19608	0.529322	1.14277	0	0	0.0703034	-0.355651	0.556638	0.695906	1.18234	0	0
0.11	3.01198	1.36244	-1.3784	0.617124	-0.0658788	0.954325	-0.189592	0.000642584	-0.10654	0.196322	-0.431074	0	0	-0.286953	-0.0488171	0.0119835	0.0542878	-0.411982	0	0	-0.274952	0.0666194	-0.181804	0.443516	-0.248016	1.19273	0.533082	1.13923	0	0	0.0640109	-0.356307	0.556657	0.70045	1.17391	0	0
0.12	3.01489	1.36472	-1.37765	0.617478	-0.065547	0.954204	-0.189979	0.00161938	-0.104988	0.192374	-0.431039	0	0	-0.284983	-0.0493225	0.0138966	0.0530325	-0.413524	0	0	-0.271019	0.0655954	-0.183881	0.437096	-0.249876	1.18696	0.537229	1.13308	0	0	0.0581292	-0.357664	0.559235	0.706247	1.16083	0	0
0.13	3.01751	1.36638	-1.37639	0.617799	-0.0652707	0.954126	-0.19061	0.00304968	-0.103257	0.189151	-0.430743	0	0	-0.283579	-0.0501865	0.0153115	0.0515904	-0.414678	0	0	-0.268227	0.0649111	-0.186313	0.430663	-0.251872	1.17982	0.541429	1.12654	0	0	0.0523116	-0.359286	0.562122	0.713237	1.14625	0	0
0.14	3.02052	1.3678	-1.37544	0.618108	-0.0650278	0.954037	-0.191172	0.00397818	-0.101986	0.186436	-0.430521	0	0	-0.282374	-0.0509926	0.0166553	0.0501572	-0.415877	0	0	-0.266007	0.0642673	-0.189013	0.424215	-0.253934	1.17184	0.54523	1.12061	0	0	0.0465675	-0.361062	0.565335	0.720923	1.13226	0	0
0.15	3.02403	1.36902	-1.37493	0.618408	-0.0648306	0.953948	-0.191668	0.0049372	-0.101376	0.184381	-0.429868	0	0	-0.281446	-0.0516171	0.0182408	0.0484598	-0.417321	0	0	-0.26438	0.0636831	-0.191633	0.417427	-0.255874	1.16202	0.548408	1.11482	0	0	0.0410403	-0.362995	0.569422	0.728902	1.12156	0	0
0.16	3.02818	1.36988	-1.37516	0.618679	-0.0646888	0.953885	-0.192301	0.00589296	-0.101308	0.182815	-0.428929	0	0	-0.280625	-0.052031	0.0190274	0.047509	-0.418278	0	0	-0.263379	0.0631383	-0.194297	0.41058	-0.257444	1.15117	0.550481	1.11041	0	0	0.0357354	-0.365044	0.574362	0.736902	1.11375	0	0
0.17	3.03181	1.36998	-1.37512	0.61891	-0.0646226	0.953884	-0.193453	0.00688107	-0.101822	0.181407	-0.428084	0	0	-0.280504	-0.0524882	0.0192359	0.046799	-0.418854	0	0	-0.263362	0.0629306	-0.196807	0.404006	-0.258902	1.14001	0.551739	1.10826	0	0	0.0311126	-0.367207	0.580982	0.74473	1.1086	0	0
0.18	3.0354	1.36952	-1.37576	0.619151	-0.0646487	0.953891	-0.195038	0.00808025	-0.102072	0.180141	-0.427295	0	0	-0.280853	-0.0528618	0.0185986	0.0466038	-0.419165	0	0	-0.264242	0.0628206	-0.198767	0.397791	-0.260121	1.1286	0.552048	1.10871	0	0	0.0272185	-0.369487	0.589206	0.752285	1.10567	0	0
0.19	3.03841	1.36883	-1.37654	0.61937	-0.0647241	0.953908	-0.196646	0.00897442	-0.102272	0.178745	-0.4269	0	0	-0.281488	-0.0531398	0.0176071	0.0463569	-0.419195	0	0	-0.265512	0.062852	-0.200296	0.392368	-0.261254	1.11898	0.551316	1.11081	0	0	0.0237846	-0.371338	0.597593	0.759186	1.10502	0	0
0.2	3.04219	1.36943	-1.37773	0.619511	-0.0646791	0.953803	-0.196686	0.00922322	-0.104304	0.178222	-0.426152	0	0	-0.280774	-0.0530717	0.017807	0.0461303	-0.419092	0	0	-0.26512	0.0625346	-0.201975	0.38645	-0.26247	1.10962	0.549789	1.1147	0	0	0.0209291	-0.372854	0.607505	0.764943	1.10618	0	0
0.21	3.04497	1.37314	-1.37674	0.619495	-0.0642942	0.953483	-0.193609	0.00889867	-0.109366	0.17812	-0.425088	0	0	-0.276546	-0.0529187	0.0197463	0.0465268	-0.418763	0	0	-0.260766	0.0617993	-0.204316	0.379055	-0.264159	1.10038	0.547856	1.11996	0	0	0.0181029	-0.373687	0.618798	0.768964	1.10977	0	0
0.22	3.0468	1.37559	-1.37565	0.619495	-0.0640472	0.953262	-0.191654	0.00887958	-0.112411	0.177818	-0.424241	0	0	-0.273518	-0.0530717	0.0212524	0.0469638	-0.418231	0	0	-0.257952	0.061595	-0.206552	0.373289	-0.265975	1.09424	0.545639	1.125	0	0	0.0151864	-0.374131	0.628631	0.772834	1.11431	0	0
0.23	3.04837	1.37766	-1.37546	0.619566	-0.0638958	0.95307	-0.189336	0.00873577	-0.113874	0.178769	-0.423374	0	0	-0.27106	-0.0531226	0.0225722	0.0469911	-0.419474	0	0	-0.254271	0.0615555	-0.207473	0.374722	-0.271156	1.11919	0.544357	1.09248	0	0	0.0152754	-0.375058	0.646736	0.773316	1.11878	0	0
0.24	3.05123	1.37887	-1.37712	0.61962	-0.0637748	0.95297	-0.187841	0.00831892	-0.114553	0.179788	-0.422656	0	0	-0.269496	-0.0529595	0.022636	0.0473726	-0.419814	0	0	-0.252714	0.0613086	-0.20844	0.370838	-0.273593	1.11866	0.541591	1.09303	0	0	0.013611	-0.375146	0.658573	0.775505	1.12486	0	0
0.25	3.05464	1.38035	-1.37947	0.619609	-0.0636041	0.952875	-0.185743	0.00747807	-0.115842	0.181636	-0.421609	0	0	-0.267832	-0.0524585	0.0225303	0.0476587	-0.42033	0	0	-0.250694	0.0610008	-0.209121	0.366727	-0.27616	1.11783	0.538351	1.09299	0	0	0.0129315	-0.375222	0.672388	0.776802	1.13004	0	0
0.26	3.05716	1.38185	-1.38099	0.619591	-0.0634185	0.952794	-0.183678	0.00689938	-0.116425	0.183279	-0.420602	0	0	-0.266361	-0.0520619	0.0229623	0.0476383	-0.420669	0	0	-0.248769	0.0609393	-0.209805	0.362681	-0.279106	1.11711	0.53556	1.09248	0	0	0.0122053	-0.375023	0.68512	0.777715	1.13495	0	0
0.27	3.05985	1.38326	-1.38266	0.619552	-0.063232	0.952698	-0.182041	0.0066169	-0.115615	0.184351	-0.419824	0	0	-0.26513	-0.0515791	0.0237635	0.0474619	-0.420711	0	0	-0.24698	0.0608633	-0.210668	0.358694	-0.28211	1.11629	0.532939	1.09163	0	0	0.0110792	-0.374923	0.697012	0.778662	1.14045	0	0
0.28	3.06209	1.3849	-1.38353	0.619438	-0.0630105	0.952588	-0.180737	0.006447	-0.114897	0.184361	-0.419503	0	0	-0.263596	-0.0511681	0.0248329	0.0473956	-0.420647	0	0	-0.244805	0.0609321	-0.211776	0.354496	-0.285265	1.11536	0.530436	1.09079	0	0	0.0101938	-0.37459	0.708914	0.77908	1.14451	0	0
0.29	3.06347	1.38652	-1.38361	0.619296	-0.0628058	0.952482	-0.17964	0.00629776	-0.11507	0.183907	-0.41958	0	0	-0.262162	-0.0508483	0.0260002	0.047114	-0.420701	0	0	-0.242692	0.0611594	-0.212981	0.350466	-0.288358	1.11458	0.527891	1.09031	0	0	0.00941769	-0.373875	0.719676	0.779077	1.14691	0	0
